STARTFONT 2.1
FONT -FontForge-CMU Typewriter Text-Medium-R-Normal--70-670-75-75-M-370-ISO10646-1
SIZE 67 75 75
FONTBOUNDINGBOX 38 65 0 -16
COMMENT "Generated by fontforge, http://fontforge.sourceforge.net"
COMMENT "Converted by Andrey V. Panov from TeX fonts. Some glyphs are copied from Blue Sky fonts released by AMS."
STARTPROPERTIES 41
FOUNDRY "FontForge"
FAMILY_NAME "CMU Typewriter Text"
WEIGHT_NAME "Medium"
SLANT "R"
SETWIDTH_NAME "Normal"
ADD_STYLE_NAME ""
PIXEL_SIZE 70
POINT_SIZE 670
RESOLUTION_X 75
RESOLUTION_Y 75
SPACING "M"
AVERAGE_WIDTH 370
CHARSET_REGISTRY "ISO10646"
CHARSET_ENCODING "1"
FONTNAME_REGISTRY ""
CHARSET_COLLECTIONS "ASCII ISOLatin1Encoding ISO8859-2 ISO8859-5 ISO8859-7 ISO8859-9 ISO10646-1"
FONT_NAME "CMUTypewriter-Regular"
FACE_NAME "CMU Typewriter Text Regular"
COPYRIGHT "Converted by Andrey V. Panov from TeX fonts. Some glyphs are copied from Blue Sky fonts released by AMS."
FONT_VERSION "0.6.3a"
FONT_ASCENT 54
FONT_DESCENT 16
UNDERLINE_POSITION -9
UNDERLINE_THICKNESS 4
X_HEIGHT 29
CAP_HEIGHT 42
DEFAULT_CHAR 0
RAW_ASCENT 775
RAW_DESCENT 225
NORM_SPACE 37
RELATIVE_WEIGHT 50
RELATIVE_SETWIDTH 50
SUPERSCRIPT_X 0
SUPERSCRIPT_Y 0
SUPERSCRIPT_SIZE 48
SUBSCRIPT_X 0
SUBSCRIPT_Y 33
SUBSCRIPT_SIZE 48
FIGURE_WIDTH 37
AVG_LOWERCASE_WIDTH 370
AVG_UPPERCASE_WIDTH 370
ENDPROPERTIES
CHARS 94
STARTCHAR exclam
ENCODING 33
SWIDTH 525 0
DWIDTH 37 0
BBX 9 44 14 0
BITMAP
0800
7E00
7F00
FF00
FF80
FF80
FF80
FF80
FF80
FF00
FF00
FF00
FF00
FF00
FF00
FF00
FF00
FF00
FF00
FF00
FF00
7F00
7F00
7F00
7F00
7F00
7F00
7F00
7F00
3E00
0000
0000
0000
0000
0000
1C00
7E00
FF00
FF80
FF80
FF80
FF00
7F00
3C00
ENDCHAR
STARTCHAR quotedbl
ENCODING 34
SWIDTH 525 0
DWIDTH 37 0
BBX 19 20 9 23
BITMAP
7807C0
FC07C0
FC0FE0
FC0FE0
FC0FC0
FC0FC0
FC07C0
FC07C0
FC07C0
FC07C0
FC07C0
7C07C0
7C07C0
7C07C0
7C07C0
7807C0
7807C0
7807C0
780780
380380
ENDCHAR
STARTCHAR numbersign
ENCODING 35
SWIDTH 525 0
DWIDTH 37 0
BBX 32 43 2 0
BITMAP
001C00E0
001E01E0
003E01E0
003E01E0
003E01E0
003C01E0
003C03E0
003C03E0
003C03E0
003C03C0
007C03C0
007C03C0
7FFFFFFF
FFFFFFFF
7FFFFFFF
7FFFFFFE
00780780
00F80780
00F80780
00F80780
00F00780
00F00F80
00F00F80
00F00F00
00F00F00
01F00F00
01F00F00
7FFFFFFE
7FFFFFFF
FFFFFFFF
7FFFFFFF
01E01E00
03E01E00
03E01E00
03C01E00
03C01E00
03C03E00
03C03E00
03C03E00
07C03C00
07C03C00
07C03C00
03801800
ENDCHAR
STARTCHAR dollar
ENCODING 36
SWIDTH 525 0
DWIDTH 37 0
BBX 29 55 4 -6
BITMAP
00020000
000F0000
000F0000
000F8000
000F8000
000F8000
003FE000
01FFFC00
07FFFF00
0FFFFF80
1FFFFFC0
3F8F8FE0
7E0F83F0
7C0F81F0
780F81F0
F80F81F0
F80F81F8
F80F83F8
F80F81F0
F80F81F0
7C0F8040
7E0F8000
7F0F8000
3FEF8000
1FFF8000
0FFFF000
03FFFC00
00FFFE00
001FFF80
000FFFC0
000F9FE0
000F87E0
000F83F0
000F81F0
780F81F0
FC0F80F8
FC0F80F8
FC0F80F8
FC0F80F0
F80F80F0
FC0F81F0
7C0F83F0
7E0F83E0
3F0F8FC0
3FCFBFC0
1FFFFF80
07FFFF00
03FFFC00
00FFF000
000F8000
000F8000
000F8000
000F0000
000F0000
00070000
ENDCHAR
STARTCHAR percent
ENCODING 37
SWIDTH 525 0
DWIDTH 37 0
BBX 32 54 2 -6
BITMAP
0F8000F0
1FC000F0
3FE001F8
3FE001F0
7DF001F0
78F003E0
78F003E0
F07807E0
F07807C0
F07807C0
78780F80
78F00F80
78F01F80
7DF01F00
3FE01F00
3FE03E00
1FC03E00
07807E00
00007C00
00007C00
0000F800
0000F800
0001F800
0001F000
0001F000
0003E000
0003E000
0007E000
0007C000
0007C000
000FC000
000F8000
001F8000
001F0000
001F0000
003F00F0
003E01FC
007E03FC
007C07FE
007C07FE
00FC079F
00F80F0F
01F80F0F
01F00F0F
01F00F0F
03F00F0F
03E00F0F
07E00F0F
07C0079F
07C007FE
0FC007FE
0F8003FC
0F8001FC
070000F0
ENDCHAR
STARTCHAR ampersand
ENCODING 38
SWIDTH 525 0
DWIDTH 37 0
BBX 32 45 2 -1
BITMAP
003E0000
00FF0000
00FF8000
01FFC000
03F7C000
03C3C000
03C1E000
0781E000
0781E000
0781E000
0781E000
0781E000
0783E000
0783C000
0787C7FF
03C7CFFF
03CF8FFF
03DF87FF
03FF01E0
03FE01E0
01FC03C0
01FC03C0
01F807C0
03F00780
07F00780
0FF80F80
1FF80F00
3F7C1F00
3E3C1E00
7C3E1E00
7C1E3E00
F80F3C00
F80FFC00
F807F800
F807F800
F803F00F
F801F00F
F803F00F
7C07F80F
7C0FFC1F
7E3FBF3E
3FFF3FFE
1FFE0FFC
0FFC07F8
03E001F0
ENDCHAR
STARTCHAR quotesingle
ENCODING 39
SWIDTH 525 0
DWIDTH 37 0
BBX 6 20 15 23
BITMAP
7C
FC
FC
FC
FC
FC
FC
FC
7C
7C
7C
7C
7C
7C
7C
7C
7C
78
78
38
ENDCHAR
STARTCHAR parenleft
ENCODING 40
SWIDTH 525 0
DWIDTH 37 0
BBX 19 55 12 -6
BITMAP
000080
0003C0
000FE0
001FC0
003F80
007F00
00FC00
01F800
03F000
03E000
07E000
0FC000
0F8000
1F8000
1F0000
3F0000
3E0000
3E0000
7C0000
7C0000
7C0000
7C0000
F80000
F80000
F80000
F80000
F80000
F80000
F80000
F80000
F80000
F80000
F80000
7C0000
7C0000
7C0000
7C0000
3E0000
3E0000
3E0000
1F0000
1F8000
0F8000
0FC000
07C000
03E000
03F000
01F800
00FC00
007E00
003F80
001FC0
000FE0
0003C0
0001C0
ENDCHAR
STARTCHAR parenright
ENCODING 41
SWIDTH 525 0
DWIDTH 37 0
BBX 19 55 6 -6
BITMAP
200000
F80000
FC0000
7E0000
3F8000
1FC000
0FE000
07E000
03F000
01F800
00FC00
007C00
003E00
003E00
001F00
001F00
000F80
000F80
000F80
0007C0
0007C0
0007C0
0007C0
0007C0
0003C0
0003E0
0003E0
0003E0
0003E0
0003E0
0003C0
0007C0
0007C0
0007C0
0007C0
0007C0
000F80
000F80
000F80
001F00
001F00
003E00
003E00
007C00
00FC00
01F800
01F000
03F000
07E000
1FC000
3F8000
7F0000
FC0000
F80000
600000
ENDCHAR
STARTCHAR asterisk
ENCODING 42
SWIDTH 525 0
DWIDTH 37 0
BBX 27 30 5 6
BITMAP
000E0000
001F0000
001F0000
001F0000
001F0000
001F0000
601F01C0
F81F03E0
FE1F0FE0
FF9F3FE0
7FDEFF80
1FFFFF00
07FFFC00
01FFF000
007FC000
00FFE000
03FFF800
0FFFFE00
3FFEFF80
FF9E7FC0
FF1F1FE0
FC1F07E0
F01F03C0
001F0000
001F0000
001F0000
001F0000
001F0000
001E0000
000C0000
ENDCHAR
STARTCHAR plus
ENCODING 43
SWIDTH 525 0
DWIDTH 37 0
BBX 31 32 3 5
BITMAP
00030000
00078000
00078000
0007C000
0007C000
0007C000
0007C000
0007C000
0007C000
0007C000
0007C000
0007C000
0007C000
0007C000
FFFFFFFE
FFFFFFFE
FFFFFFFE
FFFFFFFC
0007C000
0007C000
0007C000
0007C000
0007C000
0007C000
0007C000
0007C000
0007C000
0007C000
0007C000
00078000
00078000
00010000
ENDCHAR
STARTCHAR comma
ENCODING 44
SWIDTH 525 0
DWIDTH 37 0
BBX 11 19 13 -10
BITMAP
0E00
3F80
7FC0
7FC0
7FE0
7FE0
7FE0
3FE0
1FE0
01E0
03E0
03C0
07C0
0F80
3F80
FF00
FE00
F800
6000
ENDCHAR
STARTCHAR hyphen
ENCODING 45
SWIDTH 525 0
DWIDTH 37 0
BBX 24 4 6 13
BITMAP
7FFFFF
FFFFFF
FFFFFF
7FFFFF
ENDCHAR
STARTCHAR period
ENCODING 46
SWIDTH 525 0
DWIDTH 37 0
BBX 9 9 14 0
BITMAP
1C00
7E00
FF00
FF80
FF80
FF80
FF00
7F00
3C00
ENDCHAR
STARTCHAR slash
ENCODING 47
SWIDTH 525 0
DWIDTH 37 0
BBX 29 55 4 -6
BITMAP
00000020
00000070
000000F8
000000F0
000001F0
000001E0
000003E0
000003C0
000007C0
00000780
00000F80
00000F80
00001F00
00001F00
00003E00
00003E00
00007C00
00007C00
0000F800
0000F800
0001F000
0001F000
0003E000
0003E000
0007C000
0007C000
000F8000
000F8000
000F0000
001F0000
001E0000
003E0000
003C0000
007C0000
00780000
00F80000
00F00000
01F00000
01E00000
03E00000
03E00000
07C00000
07C00000
0F800000
0F800000
1F000000
1F000000
3E000000
3E000000
7C000000
7C000000
F8000000
F8000000
F0000000
60000000
ENDCHAR
STARTCHAR zero
ENCODING 48
SWIDTH 525 0
DWIDTH 37 0
BBX 30 45 3 -1
BITMAP
000FC000
003FF800
00FFFC00
01FFFE00
03FC7F00
03F01F80
07C00FC0
0FC007C0
0F8003E0
1F0003E0
1F0001F0
3E0001F0
3E0000F8
3C0000F8
7C0000F8
7C000078
7C00007C
7C00007C
7800007C
7800007C
7800007C
7800007C
F800007C
F800007C
7800007C
7C00007C
7C00007C
7C00007C
7C00007C
7C0000F8
7C0000F8
3E0000F8
3E0000F8
3E0001F0
1F0001F0
1F0003E0
0F8003E0
0FC007C0
07E00FC0
03F01F80
03FC7F00
01FFFE00
00FFFC00
003FF800
000FE000
ENDCHAR
STARTCHAR one
ENCODING 49
SWIDTH 525 0
DWIDTH 37 0
BBX 24 44 7 0
BITMAP
000800
001E00
003E00
003E00
007E00
007E00
00FE00
01FE00
07FE00
7FFE00
FFFE00
FF3E00
7C3E00
003E00
003E00
003E00
003E00
003E00
003E00
003E00
003E00
003E00
003E00
003E00
003E00
003E00
003E00
003E00
003E00
003E00
003E00
003E00
003E00
003E00
003E00
003E00
003E00
003E00
003E00
003E00
7FFFFF
7FFFFF
7FFFFF
7FFFFE
ENDCHAR
STARTCHAR two
ENCODING 50
SWIDTH 525 0
DWIDTH 37 0
BBX 29 44 4 0
BITMAP
007FC000
01FFF800
07FFFE00
0FFFFF00
1FF1FF80
3F001FC0
7E000FE0
7C0003E0
F80001F0
F80001F0
F80000F8
FC0000F8
FC0000F8
FC0000F8
780000F8
000000F8
000000F8
000000F8
000001F0
000001F0
000003E0
000007E0
00000FC0
00000FC0
00001F80
00003F00
0000FE00
0001FC00
0003F800
0007F000
000FE000
001F8000
007F0000
00FE0000
01FC0000
03F80000
07E00030
0FC000F8
3F8000F8
7F0000F8
FFFFFFF8
FFFFFFF8
FFFFFFF8
FFFFFFF0
ENDCHAR
STARTCHAR three
ENCODING 51
SWIDTH 525 0
DWIDTH 37 0
BBX 31 45 3 -1
BITMAP
003FF000
01FFFC00
07FFFF00
0FFFFFC0
1FF87FE0
1F8007E0
3F0003F0
3F0001F0
3F0001F0
3F0000F8
1F0000F8
040000F0
000001F0
000001F0
000003F0
000003E0
00000FE0
00001FC0
0007FF80
003FFF00
007FFE00
007FFF80
003FFFC0
00001FE0
000007F0
000001F8
000000F8
000000FC
0000007C
0000007C
0000003C
3000003E
7C00003E
FC00003C
FC00007C
FC00007C
FC0000FC
7C0001F8
7E0003F8
3F8007F0
3FF83FE0
0FFFFFC0
07FFFF00
01FFFE00
001FF000
ENDCHAR
STARTCHAR four
ENCODING 52
SWIDTH 525 0
DWIDTH 37 0
BBX 33 44 2 0
BITMAP
00001C0000
00007F0000
0000FF0000
0000FF0000
0001FF0000
0003EF0000
0003EF0000
0007CF0000
000F8F0000
000F8F0000
001F0F0000
001E0F0000
003E0F0000
007C0F0000
007C0F0000
00F80F0000
01F00F0000
01F00F0000
03E00F0000
07C00F0000
07C00F0000
0F800F0000
0F000F0000
1F000F0000
3E000F0000
3E000F0000
7C000F0000
F8000F0000
FFFFFFFF00
FFFFFFFF80
FFFFFFFF80
FFFFFFFF00
00000F0000
00000F0000
00000F0000
00000F0000
00000F0000
00000F0000
00000F0000
00000F0000
0003FFFE00
0007FFFF00
0007FFFE00
0003FFFE00
ENDCHAR
STARTCHAR five
ENCODING 53
SWIDTH 525 0
DWIDTH 37 0
BBX 29 44 4 -1
BITMAP
1FFFFFC0
3FFFFFE0
3FFFFFE0
3FFFFFC0
3E000000
3E000000
3E000000
3E000000
3E000000
3E000000
3E000000
3E000000
3E000000
3E000000
3E000000
3E000000
3E3FF000
3FFFFC00
3FFFFF00
3FFFFF80
3FE03FC0
3F800FC0
3F0007E0
3E0003F0
080001F0
000001F0
000000F8
000000F8
000000F8
000000F8
780000F8
FC0000F8
FC0000F8
FC0001F0
FC0001F0
F80003F0
FC0007E0
7E000FE0
7F001FC0
3FE0FF80
1FFFFF00
07FFFC00
03FFF000
007F8000
ENDCHAR
STARTCHAR six
ENCODING 54
SWIDTH 525 0
DWIDTH 37 0
BBX 29 45 4 -1
BITMAP
0001FC00
000FFF80
003FFFC0
00FFFFE0
01FF8FE0
03FC03F0
07F003F0
0FE003F0
0FC003F0
1F8003E0
3F000080
3E000000
3E000000
7C000000
7C000000
7C000000
F81FE000
F8FFF800
F9FFFE00
FFFFFF00
FFF8FF80
FFC01FC0
FF0007E0
FE0003E0
FC0003F0
FC0001F0
F80001F0
F80000F8
F80000F8
F80000F8
F80000F8
F80000F8
7C0000F8
7C0000F8
7C0001F0
3E0001F0
3E0003F0
1F0003E0
1F8007E0
0FC01FC0
07F8FF80
03FFFF00
01FFFE00
00FFF800
001FC000
ENDCHAR
STARTCHAR seven
ENCODING 55
SWIDTH 525 0
DWIDTH 37 0
BBX 31 45 3 -1
BITMAP
70000000
FFFFFFFC
FFFFFFFE
FFFFFFFE
FFFFFFFC
F80001F8
F80003F0
F80007E0
600007C0
00000F80
00001F80
00003F00
00003E00
00007E00
0000FC00
0000F800
0001F800
0001F000
0003F000
0003E000
0007E000
0007C000
0007C000
000F8000
000F8000
000F8000
001F0000
001F0000
001F0000
003E0000
003E0000
003E0000
003E0000
003E0000
007C0000
007C0000
007C0000
007C0000
007C0000
007C0000
007C0000
007C0000
007C0000
007C0000
00380000
ENDCHAR
STARTCHAR eight
ENCODING 56
SWIDTH 525 0
DWIDTH 37 0
BBX 31 45 3 -1
BITMAP
001FF000
00FFFC00
03FFFF00
07FFFFC0
0FF83FE0
1FC007F0
3F8003F0
3E0001F8
3E0000F8
7C0000F8
7C00007C
7C00007C
7C00007C
7C0000F8
3E0000F8
3E0001F0
1F8003F0
0FC007E0
07F83FC0
03FFFF00
007FFC00
00FFFE00
03FFFF80
07F01FC0
1FC007E0
3F0001F0
3E0000F8
7C0000F8
7C00007C
F800007C
F800003C
F800003E
F800003E
F800003C
F800007C
7C00007C
7C0000FC
3E0001F8
3F0003F8
1FC007F0
0FF83FE0
07FFFFC0
03FFFF00
00FFFE00
001FF000
ENDCHAR
STARTCHAR nine
ENCODING 57
SWIDTH 525 0
DWIDTH 37 0
BBX 29 45 4 -1
BITMAP
001FC000
00FFF800
03FFFC00
07FFFE00
0FF8FF00
1FC01F80
3F000FC0
7E0007C0
7C0007E0
7C0003E0
F80003E0
F80001F0
F80001F0
F80001F0
F80001F0
F80001F0
F80001F8
F80001F8
F80001F8
FC0001F8
7C0003F8
7E0007F8
3F000FF8
1F801FF8
1FF0FFF8
0FFFFEF8
03FFFCF8
01FFF0F8
003FC1F0
000001F0
000001F0
000003F0
000003E0
000007E0
000007C0
3C000FC0
7E001F80
7E003F80
7E007F00
7E00FE00
7F87FC00
3FFFF800
1FFFE000
0FFFC000
01FE0000
ENDCHAR
STARTCHAR colon
ENCODING 58
SWIDTH 525 0
DWIDTH 37 0
BBX 9 30 14 0
BITMAP
3C00
7F00
FF00
FF80
FF80
FF80
7F00
7E00
1C00
0000
0000
0000
0000
0000
0000
0000
0000
0000
0000
0000
0000
1C00
7E00
7F00
FF80
FF80
FF80
FF00
7F00
3C00
ENDCHAR
STARTCHAR semicolon
ENCODING 59
SWIDTH 525 0
DWIDTH 37 0
BBX 11 40 13 -10
BITMAP
1E00
3F80
7F80
7FC0
7FC0
7FC0
7F80
3F00
0E00
0000
0000
0000
0000
0000
0000
0000
0000
0000
0000
0000
0000
0E00
3F80
7FC0
7FC0
7FE0
7FE0
7FE0
3FE0
1FE0
01E0
03E0
03C0
07C0
0F80
3F80
FF00
FE00
F800
6000
ENDCHAR
STARTCHAR less
ENCODING 60
SWIDTH 525 0
DWIDTH 37 0
BBX 29 34 4 4
BITMAP
000000F0
000001F8
000007F8
00000FF0
00003FC0
0000FF80
0001FE00
0007F800
001FF000
003FC000
00FF8000
01FE0000
07F80000
1FF00000
3FC00000
FF000000
FE000000
FE000000
7F800000
3FE00000
0FF00000
03FC0000
01FE0000
007F8000
003FE000
000FF000
0003FC00
0001FF00
00007F80
00001FE0
00000FF0
000003F8
000001F8
00000070
ENDCHAR
STARTCHAR equal
ENCODING 61
SWIDTH 525 0
DWIDTH 37 0
BBX 31 15 3 14
BITMAP
FFFFFFFC
FFFFFFFE
FFFFFFFE
FFFFFFFE
00000000
00000000
00000000
00000000
00000000
00000000
00000000
FFFFFFFE
FFFFFFFE
FFFFFFFE
FFFFFFFC
ENDCHAR
STARTCHAR greater
ENCODING 62
SWIDTH 525 0
DWIDTH 37 0
BBX 29 34 4 4
BITMAP
F0000000
FC000000
FE000000
7F800000
3FE00000
0FF00000
03FC0000
01FF0000
007F8000
001FE000
000FF800
0003FC00
0001FF00
00007F80
00001FE0
00000FF0
000003F8
000007F8
00000FF0
00003FC0
0000FF80
0001FE00
0007F800
000FF000
003FC000
00FF8000
01FE0000
07F80000
1FF00000
3FC00000
FF800000
FE000000
F8000000
70000000
ENDCHAR
STARTCHAR question
ENCODING 63
SWIDTH 525 0
DWIDTH 37 0
BBX 28 43 4 0
BITMAP
00FFE000
07FFFE00
0FFFFF80
3FFFFFC0
3FE0FFE0
7F0007E0
7C0003F0
FC0001F0
FE0001F0
FC0001F0
7C0001F0
380003F0
00000FE0
00003FC0
00007F80
0001FF00
0003FC00
0003F800
0007E000
000FC000
000FC000
001F8000
001F8000
001F0000
001F0000
003F0000
003F0000
003F0000
001F0000
001F0000
00000000
00000000
00000000
00000000
00000000
00000000
001E0000
003F0000
003F8000
003F8000
003F8000
003F0000
001E0000
ENDCHAR
STARTCHAR at
ENCODING 64
SWIDTH 525 0
DWIDTH 37 0
BBX 31 43 3 0
BITMAP
0003FC00
000FFF00
003FFF80
00FFFFC0
01FF0FE0
03F803F0
07E001F0
0FC000F8
0F807F78
1F01FFF8
1E03FFFC
3E07FFFC
3C07E3FC
7C0F80FC
780F007C
781F007C
781E003C
F01E003E
F01E003E
F03C003E
F03C001E
F03C001E
F03C001E
F03C001C
F01E003C
F01E003C
781E003C
781F007C
780F0078
7C0F80F8
3C07E3F0
3E07FFF0
1E03FFE0
1F00FFC0
0F807F00
0FC0003C
07E0007E
03F801FC
01FF07FC
00FFFFF8
003FFFE0
000FFF80
0001FE00
ENDCHAR
STARTCHAR A
ENCODING 65
SWIDTH 525 0
DWIDTH 37 0
BBX 33 44 2 0
BITMAP
0003C00000
0007F00000
0007F00000
000FF00000
000FF00000
000FF80000
000FF80000
001F780000
001F780000
001F7C0000
001E7C0000
001E7C0000
003E3C0000
003E3E0000
003E3E0000
003C3E0000
007C1E0000
007C1E0000
007C1F0000
007C1F0000
00781F0000
00F80F0000
00F80F8000
00F80F8000
00F00F8000
01F00F8000
01F007C000
01F007C000
01FFFFC000
03FFFFC000
03FFFFC000
03FFFFE000
03E003E000
03C003E000
07C003E000
07C001F000
07C001F000
07C001F000
0F8001F000
0F8000F800
FFF80FFF00
FFF80FFF80
FFF80FFF80
7FF00FFF00
ENDCHAR
STARTCHAR B
ENCODING 66
SWIDTH 525 0
DWIDTH 37 0
BBX 32 43 2 0
BITMAP
FFFFFC00
FFFFFF00
FFFFFFC0
FFFFFFE0
0F800FF0
0F8003F8
0F8000F8
0F8000FC
0F80007C
0F80007C
0F80007C
0F80007C
0F80007C
0F80007C
0F8000FC
0F8000F8
0F8001F0
0F8003F0
0F801FE0
0FFFFF80
0FFFFE00
0FFFFF80
0FFFFFE0
0F8003F0
0F8000F8
0F80007C
0F80007C
0F80003E
0F80003E
0F80001F
0F80001F
0F80001F
0F80001F
0F80003F
0F80003E
0F80007E
0F8000FC
0F8001FC
0F800FF8
FFFFFFF0
FFFFFFE0
FFFFFFC0
FFFFFE00
ENDCHAR
STARTCHAR C
ENCODING 67
SWIDTH 525 0
DWIDTH 37 0
BBX 31 45 3 -1
BITMAP
0007F01C
001FFE1E
007FFFBE
00FFFFFE
03FF1FFE
03F807FE
07E003FE
0FC001FE
1F8000FE
1F00007E
3F00007E
3E00003E
7E00003E
7C00003E
7C00003E
7C000018
F8000000
F8000000
F8000000
F8000000
F8000000
F8000000
F8000000
F8000000
F8000000
F8000000
F8000000
F8000000
F8000000
7C000000
7C00001C
7C00003E
7E00003E
3E00003E
3F00003E
1F00007C
1F80007C
0FC000FC
07E001F8
03F803F0
03FE1FE0
00FFFFC0
007FFF80
001FFE00
0007F800
ENDCHAR
STARTCHAR D
ENCODING 68
SWIDTH 525 0
DWIDTH 37 0
BBX 33 43 1 0
BITMAP
7FFFF80000
FFFFFE0000
FFFFFF8000
7FFFFFC000
07C03FE000
07C007F000
07C003F800
07C001F800
07C000FC00
07C0007C00
07C0007E00
07C0003E00
07C0003E00
07C0001F00
07C0001F00
07C0001F00
07C0000F00
07C0000F80
07C0000F80
07C0000F80
07C0000F80
07C0000F80
07C0000F80
07C0000F80
07C0000F80
07C0000F80
07C0000F80
07C0001F00
07C0001F00
07C0001F00
07C0001F00
07C0003E00
07C0003E00
07C0007E00
07C000FC00
07C001F800
07C003F800
07C007F000
07C03FE000
7FFFFFC000
FFFFFF8000
FFFFFF0000
7FFFF80000
ENDCHAR
STARTCHAR E
ENCODING 69
SWIDTH 525 0
DWIDTH 37 0
BBX 33 43 2 0
BITMAP
FFFFFFFE00
FFFFFFFE00
FFFFFFFF00
FFFFFFFF00
07C0001F00
07C0001F00
07C0001F00
07C0001F00
07C0001F00
07C0001E00
07C0001E00
07C0000000
07C0000000
07C0000000
07C0000000
07C01E0000
07C01F0000
07C01F0000
07C01F0000
07FFFF0000
07FFFF0000
07FFFF0000
07FFFF0000
07C01F0000
07C01F0000
07C01E0000
07C01E0000
07C0000000
07C0000000
07C0000000
07C0000000
07C0000700
07C0000F80
07C0000F80
07C0000F80
07C0000F80
07C0000F80
07C0000F80
07C0000F80
FFFFFFFF80
FFFFFFFF80
FFFFFFFF80
FFFFFFFF80
ENDCHAR
STARTCHAR F
ENCODING 70
SWIDTH 525 0
DWIDTH 37 0
BBX 32 43 2 0
BITMAP
7FFFFFFF
FFFFFFFF
FFFFFFFF
FFFFFFFF
07C0001F
07C0001F
07C0001F
07C0001F
07C0001F
07C0000F
07C0000F
07C00000
07C00000
07C00000
07C00000
07C00000
07C00F00
07C00F00
07C01F00
07C01F00
07FFFF00
07FFFF00
07FFFF00
07FFFF00
07C01F00
07C01F00
07C00F00
07C00F00
07C00000
07C00000
07C00000
07C00000
07C00000
07C00000
07C00000
07C00000
07C00000
07C00000
07C00000
FFFF0000
FFFF0000
FFFF0000
7FFF0000
ENDCHAR
STARTCHAR G
ENCODING 71
SWIDTH 525 0
DWIDTH 37 0
BBX 32 45 3 -1
BITMAP
000FE070
003FF8F0
00FFFEF0
01FFFFF0
03FC7FF0
07F01FF0
0FC00FF0
0F8007F0
1F8003F0
3F0003F0
3E0001F0
3E0001F0
7C0001F0
7C0000F0
7C0000F0
F8000060
F8000000
F8000000
F8000000
F8000000
F8000000
F0000000
F0000000
F0000000
F8000000
F8003FFE
F8003FFF
F8003FFF
F8003FFE
F80001F0
7C0001F0
7C0001F0
7C0001F0
3E0001F0
3E0003F0
3F0003F0
1F0007F0
0F8007F0
0FC00FF0
07F01FF0
03FC7FF0
01FFFEF0
00FFFCF0
003FF8F0
000FE000
ENDCHAR
STARTCHAR H
ENCODING 72
SWIDTH 525 0
DWIDTH 37 0
BBX 33 43 2 0
BITMAP
FFF80FFF00
FFF81FFF80
FFF81FFF80
FFF80FFF80
0F8000F800
0F8000F800
0F8000F800
0F8000F800
0F8000F800
0F8000F800
0F8000F800
0F8000F800
0F8000F800
0F8000F800
0F8000F800
0F8000F800
0F8000F800
0F8000F800
0F8000F800
0FFFFFF800
0FFFFFF800
0FFFFFF800
0FFFFFF800
0F8000F800
0F8000F800
0F8000F800
0F8000F800
0F8000F800
0F8000F800
0F8000F800
0F8000F800
0F8000F800
0F8000F800
0F8000F800
0F8000F800
0F8000F800
0F8000F800
0F8000F800
0F8000F800
FFF80FFF80
FFF81FFF80
FFF81FFF80
FFF80FFF80
ENDCHAR
STARTCHAR I
ENCODING 73
SWIDTH 525 0
DWIDTH 37 0
BBX 25 43 6 0
BITMAP
FFFFFF80
FFFFFF80
FFFFFF80
FFFFFF80
003E0000
003E0000
003E0000
003E0000
003E0000
003E0000
003E0000
003E0000
003E0000
003E0000
003E0000
003E0000
003E0000
003E0000
003E0000
003E0000
003E0000
003E0000
003E0000
003E0000
003E0000
003E0000
003E0000
003E0000
003E0000
003E0000
003E0000
003E0000
003E0000
003E0000
003E0000
003E0000
003E0000
003E0000
003E0000
FFFFFF80
FFFFFF80
FFFFFF80
FFFFFF80
ENDCHAR
STARTCHAR J
ENCODING 74
SWIDTH 525 0
DWIDTH 37 0
BBX 28 44 5 -1
BITMAP
001FFFF0
003FFFF0
003FFFF0
003FFFF0
00001E00
00001E00
00001E00
00001E00
00001E00
00001E00
00001E00
00001E00
00001E00
00001E00
00001E00
00001E00
00001E00
00001E00
00001E00
00001E00
00001E00
00001E00
00001E00
00001E00
00001E00
00001E00
00001E00
00001E00
00001E00
00001E00
00001E00
00001E00
00001E00
78001E00
FC001E00
FC003E00
FC003E00
FC007E00
FC00FC00
7F83FC00
3FFFF800
1FFFF000
0FFFC000
01FF0000
ENDCHAR
STARTCHAR K
ENCODING 75
SWIDTH 525 0
DWIDTH 37 0
BBX 33 43 2 0
BITMAP
FFF007FE00
FFF00FFF00
FFF80FFF00
FFF00FFF00
0F0001F000
0F0003E000
0F0007C000
0F000F8000
0F000F8000
0F001F0000
0F003E0000
0F007C0000
0F00FC0000
0F00F80000
0F01F00000
0F03E00000
0F07C00000
0F07C00000
0F0FC00000
0F1FC00000
0F3FE00000
0F7DE00000
0F7DF00000
0FF8F80000
0FF0780000
0FE07C0000
0FC03C0000
0FC03E0000
0F801E0000
0F001F0000
0F000F0000
0F000F8000
0F0007C000
0F0003C000
0F0003E000
0F0001E000
0F0001F000
0F0000F000
0F0000F800
FFF003FF00
FFF803FF80
FFF003FF80
FFF003FF00
ENDCHAR
STARTCHAR L
ENCODING 76
SWIDTH 525 0
DWIDTH 37 0
BBX 32 43 2 0
BITMAP
7FFF8000
FFFF8000
FFFF8000
7FFF8000
03C00000
03C00000
03C00000
03C00000
03C00000
03C00000
03C00000
03C00000
03C00000
03C00000
03C00000
03C00000
03C00000
03C00000
03C00000
03C00000
03C00000
03C00000
03C00000
03C00000
03C00000
03C00000
03C00000
03C00000
03C00000
03C00000
03C00000
03C0000F
03C0001F
03C0001F
03C0001F
03C0001F
03C0001F
03C0001F
03C0001F
7FFFFFFF
FFFFFFFF
FFFFFFFF
7FFFFFFE
ENDCHAR
STARTCHAR M
ENCODING 77
SWIDTH 525 0
DWIDTH 37 0
BBX 34 43 1 0
BITMAP
7F80007FC0
FFC000FFC0
FFE000FFC0
7FE000FFC0
0FE001FE00
0FF001FE00
0FF001DE00
0F7003DE00
0F7803DE00
0F7803DE00
0F78079E00
0F3C079E00
0F3C079E00
0F3C0F1E00
0F1E0F1E00
0F1E0F1E00
0F1E1E1E00
0F0F1E1E00
0F0F1E1E00
0F0F3C1E00
0F073C1E00
0F07BC1E00
0F07B81E00
0F03F81E00
0F03F81E00
0F03F01E00
0F01F01E00
0F01F01E00
0F00401E00
0F00001E00
0F00001E00
0F00001E00
0F00001E00
0F00001E00
0F00001E00
0F00001E00
0F00001E00
0F00001E00
0F00001E00
7FE000FFC0
FFF001FFC0
FFE001FFC0
7FE000FFC0
ENDCHAR
STARTCHAR N
ENCODING 78
SWIDTH 525 0
DWIDTH 37 0
BBX 33 43 2 0
BITMAP
7FC00FFF00
FFE00FFF80
FFE00FFF80
FFF00FFF00
0FF000F000
0F7000F000
0F7800F000
0F7800F000
0F3800F000
0F3C00F000
0F3C00F000
0F1E00F000
0F1E00F000
0F1E00F000
0F0F00F000
0F0F00F000
0F0700F000
0F0780F000
0F0780F000
0F03C0F000
0F03C0F000
0F03C0F000
0F01E0F000
0F01E0F000
0F00E0F000
0F00F0F000
0F00F0F000
0F0070F000
0F0078F000
0F0078F000
0F003CF000
0F003CF000
0F003CF000
0F001EF000
0F001EF000
0F000EF000
0F000FF000
0F000FF000
0F0007F000
FFF807F000
FFF807F000
FFF803F000
7FF001F000
ENDCHAR
STARTCHAR O
ENCODING 79
SWIDTH 525 0
DWIDTH 37 0
BBX 29 45 4 -1
BITMAP
01FFF800
0FFFFF00
1FFFFFC0
3FFFFFC0
3FE03FE0
7F0007E0
7E0003F0
7C0001F0
7C0001F0
F80001F0
F80001F0
F80000F0
F80000F0
F80000F8
F80000F8
F80000F8
F80000F8
F80000F8
F80000F8
F80000F8
F80000F8
F80000F8
F80000F8
F80000F8
F80000F8
F80000F8
F80000F8
F80000F8
F80000F8
F80000F8
F80000F8
F80000F8
F80000F0
F80001F0
F80001F0
FC0001F0
7C0001F0
7C0003F0
7E0003F0
7F0007E0
3FE07FE0
3FFFFFC0
1FFFFFC0
0FFFFF00
01FFF800
ENDCHAR
STARTCHAR P
ENCODING 80
SWIDTH 525 0
DWIDTH 37 0
BBX 32 43 2 0
BITMAP
FFFFFC00
FFFFFF80
FFFFFFC0
FFFFFFE0
07C01FF0
07C003F8
07C000FC
07C0007C
07C0007E
07C0003E
07C0003E
07C0001E
07C0001F
07C0001F
07C0001E
07C0003E
07C0003E
07C0007E
07C0007C
07C000FC
07C003F8
07C01FF0
07FFFFF0
07FFFFC0
07FFFF80
07FFFC00
07C00000
07C00000
07C00000
07C00000
07C00000
07C00000
07C00000
07C00000
07C00000
07C00000
07C00000
07C00000
07C00000
FFFC0000
FFFE0000
FFFE0000
FFFC0000
ENDCHAR
STARTCHAR Q
ENCODING 81
SWIDTH 525 0
DWIDTH 37 0
BBX 29 54 4 -10
BITMAP
01FFF800
0FFFFF00
1FFFFFC0
3FFFFFC0
3FE03FE0
7F0007E0
7E0003F0
7C0001F0
7C0001F0
F80001F0
F80001F0
F80001F0
F80000F0
F80000F8
F80000F8
F80000F8
F80000F8
F80000F8
F80000F8
F80000F8
F80000F8
F80000F8
F80000F8
F80000F8
F80000F8
F80000F8
F80000F8
F80000F8
F80000F8
F80000F8
F80000F8
F80000F8
F80780F0
F807C1F0
F807C1F0
F807E1F0
7C03E1F0
7C03F1F0
7E01F3F0
7F01FFE0
3FE0FFE0
3FFFFFC0
1FFFFFC0
0FFFFF00
01FFFF00
00001F00
00001F80
00000F80
00000FC0
000007C0
000007E0
000003E0
000003F0
000001F0
ENDCHAR
STARTCHAR R
ENCODING 82
SWIDTH 525 0
DWIDTH 37 0
BBX 35 44 2 -1
BITMAP
FFFFE00000
FFFFF80000
FFFFFE0000
FFFFFF0000
0F80FF8000
0F801FC000
0F8007E000
0F8003E000
0F8003F000
0F8001F000
0F8001F000
0F8001F000
0F8001F000
0F8001F000
0F8001F000
0F8003F000
0F8003E000
0F8007E000
0F801FC000
0F80FF8000
0FFFFF0000
0FFFFE0000
0FFFFE0000
0FFFFF0000
0F803F8000
0F801F8000
0F8007C000
0F8007C000
0F8007C000
0F8003C000
0F8003C000
0F8003C000
0F8003C000
0F8003C000
0F8003C000
0F8003C3C0
0F8003C3E0
0F8003E3C0
0F8003E7C0
FFF803F7C0
FFF801FFC0
FFF801FF80
FFF800FF00
0000003E00
ENDCHAR
STARTCHAR S
ENCODING 83
SWIDTH 525 0
DWIDTH 37 0
BBX 29 45 4 -1
BITMAP
007F80C0
03FFF1E0
0FFFF9E0
1FFFFFE0
3FE1FFE0
3F003FE0
7C001FE0
FC000FE0
F80007E0
F00007E0
F00003E0
F00003E0
F00003E0
F80003E0
F80001E0
FC000000
7E000000
7F000000
3FF00000
1FFF0000
0FFFF000
07FFFC00
00FFFF00
001FFF80
0001FFC0
00001FE0
000007E0
000003F0
000001F0
000000F8
F00000F8
F00000F8
F00000F8
F80000F8
F80000F8
F80000F8
FC0001F0
FC0001F0
FF0003E0
FF8007E0
FFFC3FC0
FFFFFF80
F7FFFF00
F1FFFC00
E01FF000
ENDCHAR
STARTCHAR T
ENCODING 84
SWIDTH 525 0
DWIDTH 37 0
BBX 33 43 2 0
BITMAP
FFFFFFFF00
FFFFFFFF80
FFFFFFFF80
FFFFFFFF80
F803E00F80
F803E00F80
F803E00F80
F803E00F80
F803E00F80
F803E00F80
7003E00700
0003E00000
0003E00000
0003E00000
0003E00000
0003E00000
0003E00000
0003E00000
0003E00000
0003E00000
0003E00000
0003E00000
0003E00000
0003E00000
0003E00000
0003E00000
0003E00000
0003E00000
0003E00000
0003E00000
0003E00000
0003E00000
0003E00000
0003E00000
0003E00000
0003E00000
0003E00000
0003E00000
0003E00000
00FFFF8000
00FFFF8000
00FFFF8000
00FFFF8000
ENDCHAR
STARTCHAR U
ENCODING 85
SWIDTH 525 0
DWIDTH 37 0
BBX 36 44 0 -1
BITMAP
7FFC03FFF0
FFFE03FFF0
FFFE03FFF0
7FFE03FFF0
07C0001E00
07C0001E00
07C0001E00
07C0001E00
07C0001E00
07C0001E00
07C0001E00
07C0001E00
07C0001E00
07C0001E00
07C0001E00
07C0001E00
07C0001E00
07C0001E00
07C0001E00
07C0001E00
07C0001E00
07C0001E00
07C0001E00
07C0001E00
07C0001E00
07C0001E00
07C0001E00
07C0001E00
07C0001E00
07C0001E00
07C0003E00
07C0003E00
03E0003E00
03E0003E00
03E0007C00
01F0007C00
01F000FC00
00F801F800
00FE03F000
007F8FF000
003FFFE000
001FFFC000
0007FF0000
0001FC0000
ENDCHAR
STARTCHAR V
ENCODING 86
SWIDTH 525 0
DWIDTH 37 0
BBX 34 44 1 -1
BITMAP
7FF003FFC0
FFF803FFC0
FFF803FFC0
7FF803FFC0
0F80007C00
07C0007C00
07C0007C00
07C0007C00
07C000F800
03E000F800
03E000F800
03E000F800
03E001F000
01E001F000
01F001F000
01F001F000
01F003E000
00F003E000
00F803E000
00F803E000
00F807C000
007807C000
007C07C000
007C07C000
007C0F8000
003C0F8000
003E0F8000
003E0F8000
003E1F0000
001E1F0000
001F1F0000
001F1F0000
001F1E0000
000F3E0000
000FBE0000
000FBE0000
000FBC0000
0007FC0000
0007FC0000
0007FC0000
0007F80000
0003F80000
0003F80000
0001F00000
ENDCHAR
STARTCHAR W
ENCODING 87
SWIDTH 525 0
DWIDTH 37 0
BBX 35 44 1 -1
BITMAP
FFC000FFC0
FFE000FFE0
FFE000FFE0
FFE000FFE0
3C00000F00
1E00000F00
1E00000F00
1E00000F00
1E00000F00
1E00000F00
1E00001E00
1E00001E00
0E00001E00
0F00001E00
0F00001E00
0F00001E00
0F00001E00
0F00E01C00
0F01F03C00
0F03F03C00
0783F83C00
0783F83C00
0783F83C00
0787F83C00
0787B83C00
0787BC7800
0787BC7800
03873C7800
03CF3C7800
03CF1C7800
03CF1E7800
03CF1E7800
03CE1E7000
03DE0EF000
01DE0EF000
01DE0FF000
01FC0FF000
01FC0FF000
01FC07F000
01FC07E000
01FC07E000
01F807E000
00F803E000
00F003C000
ENDCHAR
STARTCHAR X
ENCODING 88
SWIDTH 525 0
DWIDTH 37 0
BBX 33 43 2 0
BITMAP
7FF83FFC00
7FFC3FFE00
7FFC3FFE00
7FF83FFC00
07E007C000
03E00FC000
03F00F8000
01F01F8000
01F81F0000
00F83F0000
00FC3E0000
007C7E0000
007E7C0000
003EFC0000
001FF80000
001FF80000
000FF00000
000FF00000
0007E00000
0007E00000
0007E00000
0007E00000
000FF00000
000FF00000
001FF80000
001FF80000
003E7C0000
003E7C0000
007C3E0000
007C3E0000
00F81F0000
00F81F0000
01F00F8000
01F00F8000
03F007C000
03E007E000
07E003E000
07C003F000
0FC001F000
FFF00FFF00
FFF80FFF80
FFF80FFF80
7FF00FFF00
ENDCHAR
STARTCHAR Y
ENCODING 89
SWIDTH 525 0
DWIDTH 37 0
BBX 34 43 1 0
BITMAP
7FF803FFC0
FFF803FFC0
FFF807FFC0
7FF803FFC0
07C0007C00
07E000FC00
03E000F800
03F001F800
01F001F000
01F003F000
00F803E000
00F807E000
007C07C000
007C07C000
007E0F8000
003E0F8000
003F1F0000
001F1F0000
001F3E0000
000FBE0000
000FBC0000
0007FC0000
0007F80000
0003F80000
0003F00000
0001F00000
0001F00000
0001F00000
0001F00000
0001F00000
0001F00000
0001F00000
0001F00000
0001F00000
0001F00000
0001F00000
0001F00000
0001F00000
0001F00000
001FFF0000
003FFF0000
003FFF0000
001FFF0000
ENDCHAR
STARTCHAR Z
ENCODING 90
SWIDTH 525 0
DWIDTH 37 0
BBX 31 43 3 0
BITMAP
3FFFFFFC
7FFFFFFC
7FFFFFFC
7FFFFFFC
7C0000FC
7C0001F8
7C0001F0
7C0003F0
7C0007E0
7C0007C0
38000FC0
00001F80
00001F00
00003F00
00007E00
00007C00
0000FC00
0001F800
0001F000
0003F000
0007E000
000FC000
000FC000
001F8000
003F0000
003F0000
007E0000
00FC0000
00F80000
01F80000
03F00000
03E0003C
07E0003E
0FC0003E
0F80003E
1F80003E
3F00003E
3E00003E
7E00003E
FFFFFFFE
FFFFFFFE
FFFFFFFE
7FFFFFFC
ENDCHAR
STARTCHAR bracketleft
ENCODING 91
SWIDTH 525 0
DWIDTH 37 0
BBX 18 54 16 -6
BITMAP
FFFF80
FFFFC0
FFFFC0
FFFF80
F00000
F00000
F00000
F00000
F00000
F00000
F00000
F00000
F00000
F00000
F00000
F00000
F00000
F00000
F00000
F00000
F00000
F00000
F00000
F00000
F00000
F00000
F00000
F00000
F00000
F00000
F00000
F00000
F00000
F00000
F00000
F00000
F00000
F00000
F00000
F00000
F00000
F00000
F00000
F00000
F00000
F00000
F00000
F00000
F00000
F00000
FFFF80
FFFFC0
FFFFC0
FFFF80
ENDCHAR
STARTCHAR backslash
ENCODING 92
SWIDTH 525 0
DWIDTH 37 0
BBX 29 55 4 -6
BITMAP
20000000
F0000000
F8000000
F8000000
7C000000
7C000000
3E000000
3E000000
1E000000
1F000000
0F000000
0F800000
07800000
07C00000
03C00000
03E00000
01E00000
01F00000
00F00000
00F80000
00F80000
007C0000
007C0000
003E0000
003E0000
001F0000
001F0000
000F8000
000F8000
0007C000
0007C000
0003E000
0003E000
0001F000
0001F000
0000F800
0000F800
00007C00
00007C00
00003E00
00003E00
00001E00
00001F00
00000F00
00000F80
00000780
000007C0
000007C0
000003E0
000003E0
000001F0
000001F0
000000F8
000000F0
00000060
ENDCHAR
STARTCHAR bracketright
ENCODING 93
SWIDTH 525 0
DWIDTH 37 0
BBX 18 54 3 -6
BITMAP
FFFFC0
FFFFC0
FFFFC0
FFFFC0
0007C0
0007C0
0007C0
0007C0
0007C0
0007C0
0007C0
0007C0
0007C0
0007C0
0007C0
0007C0
0007C0
0007C0
0007C0
0007C0
0007C0
0007C0
0007C0
0007C0
0007C0
0007C0
0007C0
0007C0
0007C0
0007C0
0007C0
0007C0
0007C0
0007C0
0007C0
0007C0
0007C0
0007C0
0007C0
0007C0
0007C0
0007C0
0007C0
0007C0
0007C0
0007C0
0007C0
0007C0
0007C0
0007C0
FFFFC0
FFFFC0
FFFFC0
7FFF80
ENDCHAR
STARTCHAR asciicircum
ENCODING 94
SWIDTH 525 0
DWIDTH 37 0
BBX 26 10 5 30
BITMAP
00040000
003F0000
00FFC000
03FFF000
0FFFFC00
3FFBFF00
7FE0FFC0
FF803FC0
FE001FC0
780007C0
ENDCHAR
STARTCHAR underscore
ENCODING 95
SWIDTH 525 0
DWIDTH 37 0
BBX 29 5 4 -7
BITMAP
7FFFFFF0
FFFFFFF8
FFFFFFF8
FFFFFFF8
7FFFFFF0
ENDCHAR
STARTCHAR grave
ENCODING 96
SWIDTH 525 0
DWIDTH 37 0
BBX 14 9 8 36
BITMAP
7000
FC00
FF00
FFC0
7FF8
1FFC
07FC
01FC
003C
ENDCHAR
STARTCHAR a
ENCODING 97
SWIDTH 525 0
DWIDTH 37 0
BBX 33 31 4 0
BITMAP
03FF800000
0FFFF00000
3FFFF80000
3FFFFE0000
3F03FE0000
3F003F0000
3F001F8000
1E000F8000
00000F8000
000007C000
000007C000
0003FFC000
007FFFC000
03FFFFC000
0FFFFFC000
1FFF07C000
3FE007C000
7F0007C000
7E0007C000
F80007C000
F80007C000
F80007C000
F80007C000
F8000FC000
FC000FC000
7E003FC000
7FC1FFE000
3FFFFFFF00
1FFFFBFF80
07FFE1FF80
00FF007F00
ENDCHAR
STARTCHAR b
ENCODING 98
SWIDTH 525 0
DWIDTH 37 0
BBX 33 43 1 0
BITMAP
FFC0000000
FFE0000000
FFE0000000
FFE0000000
03E0000000
03E0000000
03E0000000
03E0000000
03E0000000
03E0000000
03E0000000
03E0000000
03E0FE0000
03E7FF8000
03EFFFE000
03FFFFF000
03FF87F800
03FE01FC00
03F8007E00
03F0003E00
03F0003F00
03E0001F00
03E0001F00
03E0000F80
03E0000F80
03E0000F80
03E0000F80
03E0000F80
03E0000F80
03E0000F80
03E0000F80
03E0000F80
03E0001F00
03F0001F00
03F0003F00
03F8007E00
03F800FC00
03FE01FC00
03FF8FF800
03FFFFF000
03EFFFE000
03C7FF8000
0081FC0000
ENDCHAR
STARTCHAR c
ENCODING 99
SWIDTH 525 0
DWIDTH 37 0
BBX 28 31 5 0
BITMAP
000FFC00
007FFF80
01FFFFC0
03FFFFC0
07FC0FE0
0FE007E0
1F8007E0
3F0007C0
3E000000
7E000000
7C000000
7C000000
F8000000
F8000000
F8000000
F8000000
F8000000
F8000000
F8000000
7C000000
7C000000
7E0000E0
3E0001F0
3F0003F0
1F8003E0
0FE00FE0
07FC3FC0
03FFFF80
01FFFF00
007FFC00
000FF000
ENDCHAR
STARTCHAR d
ENCODING 100
SWIDTH 525 0
DWIDTH 37 0
BBX 33 43 3 0
BITMAP
00007FC000
0000FFE000
0000FFE000
0000FFE000
000003E000
000003E000
000003E000
000003E000
000003E000
000003E000
000003E000
000003E000
003F83E000
00FFF3E000
03FFFBE000
07FFFFE000
0FF0FFE000
1FC03FE000
3F000FE000
3E000FE000
7E0007E000
7C0003E000
F80003E000
F80003E000
F80003E000
F80003E000
F00003E000
F00003E000
F00003E000
F00003E000
F80003E000
F80003E000
F80007E000
7C0007E000
7C000FE000
7E000FE000
3F001FE000
1F803FE000
0FF1FFE000
07FFFFFF00
03FFFBFF80
01FFE3FF80
003F81FF00
ENDCHAR
STARTCHAR e
ENCODING 101
SWIDTH 525 0
DWIDTH 37 0
BBX 28 31 4 0
BITMAP
001FE000
00FFF800
01FFFE00
07FFFF00
0FF87F80
1FC00FC0
1F8007E0
3F0003E0
7E0003E0
7C0001F0
7C0001F0
F80001F0
F80001F0
FFFFFFF0
FFFFFFF0
FFFFFFF0
FFFFFFF0
F8000000
F8000000
FC000000
7C000000
7E0000F0
3E0000F0
3F0001F0
1F8003F0
0FE007E0
07FC3FE0
03FFFFC0
01FFFF80
007FFE00
000FF000
ENDCHAR
STARTCHAR f
ENCODING 102
SWIDTH 525 0
DWIDTH 37 0
BBX 28 43 3 0
BITMAP
00007F80
0001FFC0
0007FFE0
000FFFF0
001FE3F0
001F03E0
003F01E0
003E0000
003E0000
003E0000
003E0000
003E0000
003E0000
7FFFFF80
FFFFFFC0
FFFFFFC0
FFFFFFC0
003E0000
003E0000
003E0000
003E0000
003E0000
003E0000
003E0000
003E0000
003E0000
003E0000
003E0000
003E0000
003E0000
003E0000
003E0000
003E0000
003E0000
003E0000
003E0000
003E0000
003E0000
003E0000
FFFFFF00
FFFFFF80
FFFFFF80
7FFFFF00
ENDCHAR
STARTCHAR g
ENCODING 103
SWIDTH 525 0
DWIDTH 37 0
BBX 34 48 2 -16
BITMAP
0000001800
001FC1FF00
00FFF3FF80
01FFFFFFC0
03FFFFFFC0
07F8FF8F80
0FE03F0700
0F801F8000
1F800F8000
1F000FC000
1F0007C000
1F0007C000
1F0007C000
1F0007C000
1F0007C000
1F000F8000
1F800F8000
0F801F8000
0FC03F0000
07F0FE0000
0FFFFE0000
0FFFFC0000
0FFFF00000
0F1FC00000
0F00000000
0F00000000
0F80000000
07FFFC0000
07FFFFC000
0FFFFFF000
1FFFFFFC00
3F8003FE00
7E00007E00
7C00001F00
F800000F00
F000000F00
F000000F80
F000000780
F000000F80
F800000F00
7C00001F00
7E00003E00
3F8000FE00
1FF80FFC00
0FFFFFF800
03FFFFE000
00FFFF8000
001FF80000
ENDCHAR
STARTCHAR h
ENCODING 104
SWIDTH 525 0
DWIDTH 37 0
BBX 35 43 1 0
BITMAP
FFC0000000
FFE0000000
FFE0000000
FFE0000000
03E0000000
03E0000000
03E0000000
03E0000000
03E0000000
03E0000000
03E0000000
03E0000000
03E0FE0000
03E3FF8000
03EFFFE000
03FFFFE000
03FFC7F000
03FE01F000
03FC01F000
03F800F800
03F000F800
03F000F800
03E000F800
03E000F800
03E000F800
03E000F800
03E000F800
03E000F800
03E000F800
03E000F800
03E000F800
03E000F800
03E000F800
03E000F800
03E000F800
03E000F800
03E000F800
03E000F800
03E000F800
FFFF1FFFC0
FFFFBFFFE0
FFFF1FFFE0
FFFF1FFFC0
ENDCHAR
STARTCHAR i
ENCODING 105
SWIDTH 525 0
DWIDTH 37 0
BBX 27 43 5 0
BITMAP
001E0000
003F0000
003F0000
003F8000
003F0000
003F0000
001E0000
00000000
00000000
00000000
00000000
00000000
00000000
3FFF0000
7FFF8000
7FFF8000
7FFF8000
000F8000
000F8000
000F8000
000F8000
000F8000
000F8000
000F8000
000F8000
000F8000
000F8000
000F8000
000F8000
000F8000
000F8000
000F8000
000F8000
000F8000
000F8000
000F8000
000F8000
000F8000
000F8000
7FFFFFC0
FFFFFFE0
7FFFFFE0
7FFFFFC0
ENDCHAR
STARTCHAR j
ENCODING 106
SWIDTH 525 0
DWIDTH 37 0
BBX 23 59 3 -16
BITMAP
000078
0000FC
0000FE
0000FE
0000FE
0000FC
000078
000000
000000
000000
000000
000000
000000
01FFFC
03FFFE
03FFFE
03FFFE
00003E
00003E
00003E
00003E
00003E
00003E
00003E
00003E
00003E
00003E
00003E
00003E
00003E
00003E
00003E
00003E
00003E
00003E
00003E
00003E
00003E
00003E
00003E
00003E
00003E
00003E
00003E
00003E
00003E
00003E
00003E
00003E
00007C
10007C
7C00FC
7C00F8
FE01F8
FE0FF0
7FFFE0
7FFFC0
3FFF80
07FC00
ENDCHAR
STARTCHAR k
ENCODING 107
SWIDTH 525 0
DWIDTH 37 0
BBX 35 43 1 0
BITMAP
7FC0000000
7FE0000000
FFE0000000
7FE0000000
01E0000000
01E0000000
01E0000000
01E0000000
01E0000000
01E0000000
01E0000000
01E0000000
01E0000000
01E07FFF00
01E07FFF80
01E07FFF80
01E07FFF80
01E003E000
01E007C000
01E00F8000
01E03F0000
01E07E0000
01E0FC0000
01E1F80000
01E3F00000
01E7E00000
01EFF00000
01FFF80000
01FF7C0000
01FE7C0000
01F83E0000
01F01F0000
01E00F8000
01E00F8000
01E007C000
01E003E000
01E001F000
01E000F800
01E000F800
7FFF07FFC0
FFFF87FFE0
7FFF87FFC0
7FFF07FFC0
ENDCHAR
STARTCHAR l
ENCODING 108
SWIDTH 525 0
DWIDTH 37 0
BBX 29 43 4 0
BITMAP
7FFF0000
FFFF8000
FFFF8000
FFFF8000
000F8000
000F8000
000F8000
000F8000
000F8000
000F8000
000F8000
000F8000
000F8000
000F8000
000F8000
000F8000
000F8000
000F8000
000F8000
000F8000
000F8000
000F8000
000F8000
000F8000
000F8000
000F8000
000F8000
000F8000
000F8000
000F8000
000F8000
000F8000
000F8000
000F8000
000F8000
000F8000
000F8000
000F8000
000F8000
FFFFFFF0
FFFFFFF8
FFFFFFF8
7FFFFFF0
ENDCHAR
STARTCHAR m
ENCODING 109
SWIDTH 525 0
DWIDTH 37 0
BBX 37 31 0 0
BITMAP
001F00F800
FE7FC3FE00
FFFFEFFE00
FFFFFFFF00
FFF9FF9F00
0FE0FE0F80
0FC0FE0780
0F80FC0780
0F80F80780
0F00F80780
0F00F80780
0F00F00780
0F00F00780
0F00F00780
0F00F00780
0F00F00780
0F00F00780
0F00F00780
0F00F00780
0F00F00780
0F00F00780
0F00F00780
0F00F00780
0F00F00780
0F00F00780
0F00F00780
0F00F00780
FFE7FF3FF8
FFF7FF3FF8
FFF7FF3FF8
FFE3FF3FF0
ENDCHAR
STARTCHAR n
ENCODING 110
SWIDTH 525 0
DWIDTH 37 0
BBX 35 31 1 0
BITMAP
0000FE0000
FFC3FF8000
FFEFFFE000
FFFFFFE000
FFFFC7F000
03FE01F000
03FC01F000
03F800F800
03F000F800
03F000F800
03E000F800
03E000F800
03E000F800
03E000F800
03E000F800
03E000F800
03E000F800
03E000F800
03E000F800
03E000F800
03E000F800
03E000F800
03E000F800
03E000F800
03E000F800
03E000F800
03E000F800
FFFF1FFFC0
FFFFBFFFE0
FFFF1FFFE0
FFFF1FFFC0
ENDCHAR
STARTCHAR o
ENCODING 111
SWIDTH 525 0
DWIDTH 37 0
BBX 29 31 4 0
BITMAP
001FC000
00FFF000
03FFFC00
07FFFE00
0FF8FF00
1FC01F80
1F800FC0
3F0007E0
7E0003E0
7C0003F0
7C0001F0
F80001F0
F80000F0
F80000F8
F80000F8
F80000F8
F80000F8
F80000F8
F80001F0
FC0001F0
7C0001F0
7C0003F0
7E0003E0
3F0007E0
1F800FC0
1FC01F80
0FF0FF00
07FFFE00
03FFFC00
00FFF800
001FC000
ENDCHAR
STARTCHAR p
ENCODING 112
SWIDTH 525 0
DWIDTH 37 0
BBX 33 47 1 -16
BITMAP
0000FE0000
FFC7FF8000
FFEFFFE000
FFFFFFF000
FFFF87F800
03FE01FC00
03F8007E00
03F0003E00
03F0003F00
03E0001F00
03E0001F00
03E0000F80
03E0000F80
03E0000F80
03E0000F80
03E0000F80
03E0000F80
03E0000F80
03E0000F80
03E0000F80
03E0001F00
03F0001F00
03F0003F00
03F8007E00
03F800FC00
03FE01FC00
03FF8FF800
03FFFFF000
03EFFFE000
03E7FF8000
03E1FC0000
03E0000000
03E0000000
03E0000000
03E0000000
03E0000000
03E0000000
03E0000000
03E0000000
03E0000000
03E0000000
03E0000000
03E0000000
FFFF000000
FFFF800000
FFFF000000
FFFF000000
ENDCHAR
STARTCHAR q
ENCODING 113
SWIDTH 525 0
DWIDTH 37 0
BBX 35 47 3 -16
BITMAP
001FC0F000
00FFF8F000
01FFFCF000
07FFFEF000
0FF87FF000
1FC01FF000
1F800FF000
3F0007F000
7E0003F000
7C0003F000
7C0001F000
F80001F000
F80001F000
F80001F000
F80000F000
F80000F000
F80000F000
F80000F000
F80001F000
F80001F000
7C0001F000
7C0003F000
7E0003F000
3F0007F000
3F800FF000
1FC01FF000
0FF0FFF000
07FFFEF000
03FFFCF000
00FFF0F000
001FC0F000
000000F000
000000F000
000000F000
000000F000
000000F000
000000F000
000000F000
000000F000
000000F000
000000F000
000000F000
000000F000
00003FFFC0
00007FFFE0
00007FFFE0
00003FFFC0
ENDCHAR
STARTCHAR r
ENCODING 114
SWIDTH 525 0
DWIDTH 37 0
BBX 32 31 2 0
BITMAP
000003F8
7FF81FFE
FFF87FFF
FFFCFFFF
7FFDFF3F
007FF83F
007FE01E
007FC000
007F8000
007F0000
007E0000
007E0000
007C0000
007C0000
007C0000
007C0000
007C0000
007C0000
007C0000
007C0000
007C0000
007C0000
007C0000
007C0000
007C0000
007C0000
007C0000
7FFFFF00
FFFFFF00
FFFFFF00
7FFFFF00
ENDCHAR
STARTCHAR s
ENCODING 115
SWIDTH 525 0
DWIDTH 37 0
BBX 27 31 5 0
BITMAP
00FFC700
07FFFF80
1FFFFF80
3FFFFF80
7FE1FF80
7C001F80
F8000F80
F0000F80
F0000F80
F8000F80
FC000200
7F000000
3FFC0000
1FFFE000
0FFFFC00
01FFFF00
000FFF80
00003FC0
00000FC0
F80003E0
F80001E0
F80001E0
FC0001E0
FC0003E0
FE0003E0
FF800FC0
FFE0FFC0
FFFFFF80
FFFFFF00
F1FFFC00
707FE000
ENDCHAR
STARTCHAR t
ENCODING 116
SWIDTH 525 0
DWIDTH 37 0
BBX 29 39 2 0
BITMAP
00300000
00780000
007C0000
007C0000
007C0000
007C0000
007C0000
007C0000
007C0000
FFFFFFE0
FFFFFFF0
FFFFFFF0
FFFFFFE0
007C0000
007C0000
007C0000
007C0000
007C0000
007C0000
007C0000
007C0000
007C0000
007C0000
007C0000
007C0000
007C0000
007C0000
007C0030
007C0078
007C0078
007C0078
007C00F8
007C00F8
007E01F8
003F87F0
003FFFE0
001FFFC0
000FFF80
0001FC00
ENDCHAR
STARTCHAR u
ENCODING 117
SWIDTH 525 0
DWIDTH 37 0
BBX 35 30 1 0
BITMAP
FFC01FF000
FFE03FF800
FFE03FF800
FFE03FF800
03E000F800
03E000F800
03E000F800
03E000F800
03E000F800
03E000F800
03E000F800
03E000F800
03E000F800
03E000F800
03E000F800
03E000F800
03E000F800
03E000F800
03E000F800
03E000F800
03E000F800
03E000F800
03E001F800
03E003F800
03E007F800
03FC3FF800
01FFFFFFC0
00FFFFFFE0
007FFCFFE0
000FF07FC0
ENDCHAR
STARTCHAR v
ENCODING 118
SWIDTH 525 0
DWIDTH 37 0
BBX 33 30 2 0
BITMAP
FFF80FFF00
FFF81FFF80
FFF81FFF80
FFF80FFF80
078000F000
078000F000
078001E000
03C001E000
03C001E000
03E003C000
01E003C000
01E007C000
01F0078000
00F0078000
00F00F8000
00F80F0000
00780F0000
00781F0000
007C1E0000
003C1E0000
003C3E0000
003E3C0000
001E3C0000
001E7C0000
000F780000
000F780000
000FF00000
0007F00000
0007F00000
0003E00000
ENDCHAR
STARTCHAR w
ENCODING 119
SWIDTH 525 0
DWIDTH 37 0
BBX 35 30 1 0
BITMAP
7FF807FFC0
FFFC07FFE0
FFFC07FFE0
FFFC07FFC0
0F00001E00
0F00001E00
0F00001E00
0F00003C00
0F00003C00
0780003C00
0780003C00
0780003C00
0781F03800
0781F07800
03C3F87800
03C3F87800
03C3F87800
03C7BC7800
03C7BC7000
03C7BCF000
01E7BCF000
01EF3EF000
01EF1EF000
01EF1EE000
01FF1EE000
00FE0FE000
00FE0FE000
00FE0FE000
00FC07E000
007C07C000
ENDCHAR
STARTCHAR x
ENCODING 120
SWIDTH 525 0
DWIDTH 37 0
BBX 33 30 2 0
BITMAP
7FFC3FFE00
FFFC3FFF00
FFFC3FFF00
7FFC3FFE00
03E007C000
01F00F8000
00F00F0000
00781F0000
007C3E0000
003E7C0000
001F780000
000FF00000
0007F00000
0007E00000
0003C00000
0007E00000
0007F00000
000FF00000
001E780000
003E3C0000
003C1E0000
00781F0000
00F00F0000
01F0078000
03E007C000
03C003E000
FFF81FFF00
FFFC1FFF80
FFFC1FFF80
7FF81FFF00
ENDCHAR
STARTCHAR y
ENCODING 121
SWIDTH 525 0
DWIDTH 37 0
BBX 33 46 2 -16
BITMAP
FFF80FFF00
FFFC1FFF80
FFFC1FFF80
FFF80FFF80
078000F000
07C000F000
03C001E000
03C001E000
03E001E000
01E003C000
01E003C000
00F003C000
00F0078000
00F8078000
0078078000
00780F0000
003C0F0000
003C1F0000
003E1E0000
001E1E0000
001E3E0000
000F3C0000
000F3C0000
000F3C0000
0007F80000
0007F80000
0003F80000
0003F00000
0003F00000
0001F00000
0001E00000
0001E00000
0003C00000
0003C00000
0003C00000
0007800000
0007800000
180F800000
3E0F000000
7E1F000000
7E3E000000
7EFE000000
7FFC000000
3FF8000000
1FF0000000
0FC0000000
ENDCHAR
STARTCHAR z
ENCODING 122
SWIDTH 525 0
DWIDTH 37 0
BBX 31 30 2 0
BITMAP
3FFFFFFC
3FFFFFFE
7FFFFFFE
7FFFFFFE
7C0001FC
7C0003F8
7C0007F0
3C000FE0
3C001FC0
00003F80
00007F00
0000FE00
0001FC00
0003F800
0007F000
000FC000
001F8000
003F0000
007E0000
01FC0000
03F8001C
07F0001E
0FE0003E
1FC0003E
3F80003E
7F00003E
FFFFFFFE
FFFFFFFE
FFFFFFFE
7FFFFFFE
ENDCHAR
STARTCHAR braceleft
ENCODING 123
SWIDTH 525 0
DWIDTH 37 0
BBX 29 54 4 -6
BITMAP
00001FF0
0000FFF8
0003FFF8
0007FFF0
0007F800
000FC000
000F8000
000F8000
000F8000
000F8000
000F8000
000F8000
000F8000
000F8000
000F8000
000F8000
000F8000
000F8000
000F8000
000F8000
000F8000
000F8000
001F0000
007F0000
07FF0000
FFFE0000
FFF80000
FFFC0000
7FFE0000
01FF0000
003F0000
001F8000
000F8000
000F8000
000F8000
000F8000
000F8000
000F8000
000F8000
000F8000
000F8000
000F8000
000F8000
000F8000
000F8000
000F8000
000F8000
000F8000
000FE000
0007FE00
0003FFF0
0001FFF8
00007FF8
00000FF0
ENDCHAR
STARTCHAR bar
ENCODING 124
SWIDTH 525 0
DWIDTH 37 0
BBX 5 55 16 -6
BITMAP
20
F0
F8
F8
F8
F8
F8
F8
F8
F8
F8
F8
F8
F8
F8
F8
F8
F8
F8
F8
F8
F8
F8
F8
F8
F8
F8
F8
F8
F8
F8
F8
F8
F8
F8
F8
F8
F8
F8
F8
F8
F8
F8
F8
F8
F8
F8
F8
F8
F8
F8
F8
F8
F0
60
ENDCHAR
STARTCHAR braceright
ENCODING 125
SWIDTH 525 0
DWIDTH 37 0
BBX 29 55 4 -6
BITMAP
38000000
FFE00000
FFF80000
FFFC0000
7FFE0000
007F0000
001F0000
000F8000
000F8000
000F8000
000F8000
000F8000
000F8000
000F8000
000F8000
000F8000
000F8000
000F8000
000F8000
000F8000
000F8000
000F8000
000F8000
000FC000
0007F000
0007FFC0
0003FFF0
0000FFF8
0001FFF8
0007FFF0
0007F800
000FC000
000F8000
000F8000
000F8000
000F8000
000F8000
000F8000
000F8000
000F8000
000F8000
000F8000
000F8000
000F8000
000F8000
000F8000
000F8000
000F8000
001F0000
007F0000
1FFF0000
FFFE0000
FFFC0000
FFE00000
7F000000
ENDCHAR
STARTCHAR asciitilde
ENCODING 126
SWIDTH 525 0
DWIDTH 37 0
BBX 27 8 5 35
BITMAP
03E001C0
0FF803E0
1FFE07E0
3FFFFFC0
7FFFFF80
FC1FFF00
F807FE00
7001F800
ENDCHAR
ENDFONT
